<svg version="1.0" xmlns="http://www.w3.org/2000/svg"
 width="440.000000pt" height="165.000000pt" viewBox="0 0 440.000000 165.000000"
 preserveAspectRatio="xMidYMid meet">
<!-- #495867 primary OR #292b2c tertiary OR #1e000e dark -->
<g transform="translate(0.000000,165.000000) scale(0.100000,-0.100000)"
fill="#1e000e" stroke="none">
<path d="M4056 1484 c-4 -9 -4 -19 -1 -22 3 -3 5 -3 5 1 0 3 13 2 29 -3 25 -7
29 -6 24 8 -13 33 -47 43 -57 16z"/>
<path d="M4056 1453 c-18 -19 -4 -38 29 -39 19 0 35 0 35 2 0 8 -58 42 -64 37z"/>
<path d="M4050 1380 c0 -17 4 -19 16 -12 9 5 26 7 38 4 19 -5 19 -4 7 11 -20
25 -61 22 -61 -3z"/>
<path d="M4053 1345 c-7 -21 4 -32 19 -17 7 7 20 12 31 12 10 0 15 5 12 10
-10 16 -55 12 -62 -5z"/>
<path d="M3540 1320 c-79 -8 -101 -15 -190 -57 -116 -56 -210 -155 -210 -223
0 -11 -4 -20 -10 -20 -6 0 -10 -27 -10 -60 0 -70 33 -156 74 -187 14 -12 26
-27 27 -34 0 -8 24 -34 53 -58 57 -48 147 -85 184 -76 13 3 30 0 39 -6 27 -23
180 -13 300 19 47 12 64 22 73 41 18 39 -2 45 -61 18 -83 -38 -120 -47 -190
-47 -124 1 -248 48 -312 119 -38 42 -89 132 -94 166 -2 11 -6 39 -9 62 -10 71
17 142 76 195 49 45 72 58 154 92 59 25 205 22 250 -5 33 -19 36 -19 61 -3 41
27 28 47 -40 61 -33 7 -67 12 -75 11 -8 0 -49 -4 -90 -8z"/>
<path d="M2760 1309 c-104 -20 -225 -109 -249 -182 -14 -40 6 -107 35 -122 10
-6 31 -18 45 -28 14 -9 47 -19 72 -21 24 -2 50 -7 56 -11 7 -4 31 -5 54 -4 30
2 60 -5 104 -26 54 -25 64 -34 69 -61 4 -20 0 -43 -10 -62 -9 -17 -16 -36 -16
-42 0 -25 -64 -100 -94 -109 -120 -39 -366 21 -366 89 0 11 -4 20 -9 20 -14 0
-62 -61 -58 -74 5 -14 105 -67 137 -72 14 -2 52 -9 85 -15 87 -15 182 -7 241
22 27 13 75 50 108 82 54 53 58 61 53 92 -4 26 -2 35 9 35 10 0 14 13 14 48 0
51 -7 61 -77 110 -34 23 -97 30 -108 11 -5 -7 -14 -3 -26 10 -18 19 -73 29
-126 22 -7 -1 -40 12 -73 30 -46 24 -58 34 -50 44 6 7 8 19 4 28 -11 29 46 97
108 128 67 34 118 37 169 10 33 -18 38 -18 67 -4 43 21 40 37 -7 51 -44 14
-96 14 -161 1z"/>
<path d="M4070 1310 c-10 -6 -11 -12 -5 -18 6 -6 21 -2 40 9 30 19 30 19 5 19
-14 0 -32 -5 -40 -10z"/>
<path d="M4090 1275 c-9 -11 -10 -19 -3 -26 7 -7 14 -5 23 6 7 8 19 15 27 15
8 0 11 5 8 10 -9 15 -41 12 -55 -5z"/>
<path d="M4126 1241 c-27 -16 -33 -35 -16 -46 6 -3 10 -15 10 -25 0 -10 4 -22
10 -25 14 -9 57 23 64 48 7 29 3 30 -24 7 -33 -29 -42 -25 -22 10 9 16 20 30
25 30 4 0 7 4 7 8 0 14 -26 10 -54 -7z"/>
<path d="M4162 1143 c-32 -15 -38 -33 -14 -41 7 -2 12 3 12 11 0 8 13 17 30
21 17 3 30 10 30 16 0 14 -20 12 -58 -7z"/>
<path d="M4174 1105 c-4 -8 -12 -15 -20 -15 -8 0 -14 -4 -14 -10 0 -14 37 -13
42 1 2 6 16 12 31 12 30 2 35 12 11 21 -26 10 -44 7 -50 -9z"/>
<path d="M280 1044 c-23 -24 -31 -38 -22 -41 8 -3 12 -32 12 -97 0 -51 3 -96
8 -100 4 -4 5 -61 3 -127 -2 -86 0 -124 9 -134 10 -12 10 -21 1 -41 -14 -32
-15 -210 -1 -219 8 -5 7 -11 -1 -21 -6 -7 -9 -20 -6 -29 4 -8 2 -17 -3 -20 -6
-4 -10 -37 -10 -76 0 -80 10 -86 67 -43 l34 26 -7 91 c-3 51 -6 157 -6 237 l0
145 35 6 c20 3 40 2 46 -4 14 -14 107 -10 160 8 27 9 59 27 71 40 13 14 29 25
36 25 7 0 18 9 24 20 6 11 17 20 24 20 8 0 28 23 46 50 30 47 32 56 28 113 -6
71 -30 127 -59 134 -10 3 -19 9 -19 14 0 5 -22 20 -50 34 -40 20 -64 25 -124
25 -41 0 -77 -4 -80 -8 -3 -5 -18 -7 -34 -4 -16 2 -43 -3 -60 -12 -40 -21 -54
-20 -50 2 6 32 -35 25 -72 -14z m360 -47 c14 -9 31 -17 40 -17 8 0 24 -20 34
-43 10 -23 24 -48 29 -55 53 -67 -59 -222 -172 -238 -33 -4 -146 14 -185 30
l-29 12 -3 108 c-3 60 -6 112 -9 116 -3 4 1 25 9 46 11 32 20 41 52 51 56 18
203 12 234 -10z"/>
<path d="M955 1068 c-30 -17 -36 -30 -28 -63 3 -16 5 -60 4 -96 -1 -52 2 -68
14 -73 14 -5 14 -8 -1 -30 -13 -21 -14 -34 -6 -71 5 -25 6 -45 1 -45 -5 0 -9
-22 -9 -50 0 -27 2 -50 4 -50 2 0 20 7 40 15 36 15 59 46 40 52 -5 2 -9 67 -9
147 l0 145 29 30 c21 22 39 31 62 31 18 0 35 4 38 9 3 5 31 1 61 -7 l56 -16
26 27 c21 21 24 29 14 40 -20 25 -155 14 -216 -16 -55 -28 -65 -27 -65 9 0 27
-21 31 -55 12z"/>
<path d="M1490 1061 c-149 -58 -225 -158 -217 -284 5 -72 12 -89 60 -135 47
-46 128 -66 227 -57 79 7 177 43 218 79 36 32 73 117 72 167 -1 24 0 53 0 64
3 51 -11 85 -40 100 -17 9 -30 20 -30 24 0 19 -70 53 -95 47 -14 -4 -25 -2
-25 4 0 17 -121 11 -170 -9z m176 -37 c98 -62 138 -191 88 -284 -28 -52 -92
-107 -131 -113 -51 -9 -134 4 -168 25 -16 10 -38 18 -47 18 -10 0 -18 7 -18
15 0 14 -30 85 -40 95 -12 12 -2 70 22 120 56 120 203 182 294 124z"/>
<path d="M4190 1065 c-7 -8 -22 -15 -33 -15 -16 0 -18 -3 -9 -12 9 -9 17 -9
34 0 13 6 32 13 43 14 19 4 19 4 -1 16 -18 9 -24 9 -34 -3z"/>
<path d="M4184 1019 c-3 -6 -12 -8 -20 -5 -7 3 -16 1 -19 -5 -9 -14 23 -23 39
-10 8 7 18 11 22 10 19 -3 37 1 30 8 -11 12 -45 13 -52 2z"/>
<path d="M4163 983 c-13 -2 -23 -11 -23 -20 0 -11 6 -13 23 -8 12 4 35 7 50 7
18 -1 27 3 24 11 -4 13 -38 18 -74 10z"/>
<path d="M4152 943 c-44 -6 -36 -29 9 -26 31 3 32 2 14 -10 -11 -6 -31 -12
-45 -12 -16 0 -25 -6 -25 -15 0 -9 8 -14 20 -12 36 5 40 5 63 -2 21 -7 22 -5
16 18 -5 20 -2 26 10 26 14 0 15 4 6 20 -6 11 -16 19 -23 18 -7 0 -27 -3 -45
-5z"/>
<path d="M2322 878 c-11 -11 -155 -14 -173 -2 -6 3 -17 0 -25 -7 -11 -9 -18
-9 -26 -1 -22 22 -91 14 -128 -13 -19 -14 -38 -32 -42 -40 -11 -18 9 -30 27
-15 16 13 114 14 220 1 66 -9 72 -8 109 17 39 27 76 72 59 72 -5 0 -14 -5 -21
-12z"/>
<path d="M4083 842 c-7 -17 -5 -18 39 -26 27 -5 40 -2 52 10 22 22 16 26 -40
28 -30 1 -48 -3 -51 -12z"/>
<path d="M4061 796 c-9 -11 -7 -15 14 -20 14 -4 30 -4 36 -1 5 4 16 -1 25 -9
9 -9 20 -14 24 -11 16 10 -2 35 -29 41 -14 3 -33 8 -42 10 -9 3 -21 -2 -28
-10z"/>
<path d="M4032 750 c-11 -18 -10 -21 14 -30 15 -6 35 -8 45 -5 13 5 19 1 19
-10 0 -12 6 -15 23 -9 12 3 24 8 26 10 8 8 -41 53 -58 52 -9 0 -25 3 -36 7
-14 4 -24 0 -33 -15z"/>
<path d="M4020 692 c0 -6 -3 -18 -6 -26 -5 -14 0 -16 41 -12 35 3 45 1 41 -9
-3 -8 6 -14 24 -17 24 -4 27 -1 26 19 0 14 -7 23 -18 23 -9 0 -18 4 -20 10 -4
13 -88 25 -88 12z"/>
<path d="M4010 609 c0 -27 3 -30 28 -28 15 2 33 7 40 12 12 9 13 8 16 -15 1
-15 26 -23 26 -8 0 10 4 10 15 0 12 -10 15 -9 15 8 0 12 -9 23 -22 27 -13 4
-25 8 -28 9 -78 35 -90 34 -90 -5z"/>
<path d="M3995 552 c3 -7 5 -19 5 -26 0 -15 72 -17 83 -2 4 7 9 2 13 -11 7
-26 24 -31 24 -8 0 9 6 12 16 8 14 -5 14 -3 3 16 -8 11 -24 21 -36 21 -12 0
-24 4 -28 9 -3 6 -24 9 -46 8 -29 -1 -38 -5 -34 -15z"/>
<path d="M4005 480 c-4 -6 16 -10 52 -9 44 1 52 3 33 9 -36 12 -78 12 -85 0z"/>
</g>
</svg>
